REM DIRINDEX 1\2,1\3,1\4,1\5
REM DIRNAME cjc005,folder01,folder02,folder03,folder04
TITLE ""
FILE "P1Q_t_0322-0331.mp3" MP3
  TRACK 01 AUDIO
    TITLE "3:cjc005_1867"
    INDEX 01 00:00:00
  TRACK 02 AUDIO
    TITLE "0:"
    INDEX 01 00:01:30
  TRACK 03 AUDIO
    TITLE "4:cjc005_1868"
    INDEX 01 00:01:58
  TRACK 04 AUDIO
    TITLE "0:"
    INDEX 01 00:02:73
  TRACK 05 AUDIO
    TITLE "5:cjc005_1869"
    INDEX 01 00:03:25
  TRACK 06 AUDIO
    TITLE "0:"
    INDEX 01 00:07:70
  TRACK 07 AUDIO
    TITLE "3:cjc005_1870"
    INDEX 01 00:08:42
  TRACK 08 AUDIO
    TITLE "0:"
    INDEX 01 00:09:51
  TRACK 09 AUDIO
    TITLE "4:cjc005_1871"
    INDEX 01 00:10:02
  TRACK 10 AUDIO
    TITLE "0:"
    INDEX 01 00:11:07
  TRACK 11 AUDIO
    TITLE "5:cjc005_1872"
    INDEX 01 00:11:27
  TRACK 12 AUDIO
    TITLE "0:"
    INDEX 01 00:14:51
  TRACK 13 AUDIO
    TITLE "3:cjc005_1873"
    INDEX 01 00:15:32
  TRACK 14 AUDIO
    TITLE "0:"
    INDEX 01 00:16:69
  TRACK 15 AUDIO
    TITLE "4:cjc005_1874"
    INDEX 01 00:17:20
  TRACK 16 AUDIO
    TITLE "0:"
    INDEX 01 00:18:21
  TRACK 17 AUDIO
    TITLE "5:cjc005_1875"
    INDEX 01 00:18:42
  TRACK 18 AUDIO
    TITLE "0:"
    INDEX 01 00:22:21
  TRACK 19 AUDIO
    TITLE "3:cjc005_1876"
    INDEX 01 00:22:70
  TRACK 20 AUDIO
    TITLE "0:"
    INDEX 01 00:24:12
  TRACK 21 AUDIO
    TITLE "4:cjc005_1877"
    INDEX 01 00:24:35
  TRACK 22 AUDIO
    TITLE "0:"
    INDEX 01 00:25:52
  TRACK 23 AUDIO
    TITLE "5:cjc005_1878"
    INDEX 01 00:26:03
  TRACK 24 AUDIO
    TITLE "0:"
    INDEX 01 00:29:52
  TRACK 25 AUDIO
    TITLE "3:cjc005_1879"
    INDEX 01 00:30:22
  TRACK 26 AUDIO
    TITLE "0:"
    INDEX 01 00:31:39
  TRACK 27 AUDIO
    TITLE "4:cjc005_1880"
    INDEX 01 00:31:63
  TRACK 28 AUDIO
    TITLE "0:"
    INDEX 01 00:33:15
  TRACK 29 AUDIO
    TITLE "5:cjc005_1881"
    INDEX 01 00:33:48
  TRACK 30 AUDIO
    TITLE "0:"
    INDEX 01 00:37:42
  TRACK 31 AUDIO
    TITLE "3:cjc005_1882"
    INDEX 01 00:38:16
  TRACK 32 AUDIO
    TITLE "0:"
    INDEX 01 00:39:45
  TRACK 33 AUDIO
    TITLE "4:cjc005_1883"
    INDEX 01 00:39:66
  TRACK 34 AUDIO
    TITLE "0:"
    INDEX 01 00:40:64
  TRACK 35 AUDIO
    TITLE "5:cjc005_1884"
    INDEX 01 00:41:14
  TRACK 36 AUDIO
    TITLE "0:"
    INDEX 01 00:44:69
  TRACK 37 AUDIO
    TITLE "3:cjc005_1885"
    INDEX 01 00:45:51
  TRACK 38 AUDIO
    TITLE "0:"
    INDEX 01 00:46:66
  TRACK 39 AUDIO
    TITLE "4:cjc005_1886"
    INDEX 01 00:47:19
  TRACK 40 AUDIO
    TITLE "0:"
    INDEX 01 00:48:30
  TRACK 41 AUDIO
    TITLE "5:cjc005_1887"
    INDEX 01 00:48:53
  TRACK 42 AUDIO
    TITLE "0:"
    INDEX 01 00:52:69
  TRACK 43 AUDIO
    TITLE "3:cjc005_1888"
    INDEX 01 00:53:43
  TRACK 44 AUDIO
    TITLE "0:"
    INDEX 01 00:54:54
  TRACK 45 AUDIO
    TITLE "4:cjc005_1889"
    INDEX 01 00:55:06
  TRACK 46 AUDIO
    TITLE "0:"
    INDEX 01 00:56:06
  TRACK 47 AUDIO
    TITLE "5:cjc005_1890"
    INDEX 01 00:56:31
  TRACK 48 AUDIO
    TITLE "0:"
    INDEX 01 00:59:55
  TRACK 49 AUDIO
    TITLE "3:cjc005_1891"
    INDEX 01 01:00:27
  TRACK 50 AUDIO
    TITLE "0:"
    INDEX 01 01:01:48
  TRACK 51 AUDIO
    TITLE "4:cjc005_1892"
    INDEX 01 01:01:74
  TRACK 52 AUDIO
    TITLE "0:"
    INDEX 01 01:03:31
  TRACK 53 AUDIO
    TITLE "5:cjc005_1893"
    INDEX 01 01:03:57
  TRACK 54 AUDIO
    TITLE "0:"
    INDEX 01 01:09:18
  TRACK 55 AUDIO
    TITLE "3:cjc005_1894"
    INDEX 01 01:09:71
  TRACK 56 AUDIO
    TITLE "0:"
    INDEX 01 01:11:03
  TRACK 57 AUDIO
    TITLE "4:cjc005_1895"
    INDEX 01 01:11:23
  TRACK 58 AUDIO
    TITLE "0:"
    INDEX 01 01:12:40
  TRACK 59 AUDIO
    TITLE "5:cjc005_1896"
    INDEX 01 01:12:58
  TRACK 60 AUDIO
    TITLE "0:"
    INDEX 01 01:16:36
